<svg width="256" height="256" viewBox="0 0 256 256" fill="none" xmlns="http://www.w3.org/2000/svg">
  <rect width="256" height="256" rx="56" fill="#F7F4EC"/>
  <path d="M52 86C52 63.9086 69.9086 46 92 46H164C186.091 46 204 63.9086 204 86V130C204 152.091 186.091 170 164 170H132.941L96.8824 202.941C91.7839 207.599 83.5 203.982 83.5 197.079V170H92C69.9086 170 52 152.091 52 130V86Z" fill="url(#paint0_linear_1_2)"/>
  <circle cx="99" cy="108" r="18" fill="#F7F4EC"/>
  <circle cx="128" cy="108" r="18" fill="#F7F4EC"/>
  <circle cx="157" cy="108" r="18" fill="#F7F4EC"/>
  <path d="M76 195C76 183.954 84.9543 175 96 175H159C170.046 175 179 183.954 179 195V198C179 209.046 170.046 218 159 218H96C84.9543 218 76 209.046 76 198V195Z" fill="#22323B"/>
  <path d="M104.252 208L91.772 185.96H98.892L108.86 203.816H106.076L116.188 185.96H123.092L110.54 208H104.252Z" fill="#F7F4EC"/>
  <path d="M124.98 208V185.96H131.196V208H124.98Z" fill="#F7F4EC"/>
  <path d="M144.684 208.432C142.908 208.432 141.324 208.152 139.932 207.592C138.556 207.016 137.468 206.232 136.668 205.24C135.884 204.248 135.46 203.104 135.396 201.808H141.612C141.708 202.672 142.108 203.376 142.812 203.92C143.516 204.448 144.46 204.712 145.644 204.712C146.732 204.712 147.572 204.52 148.164 204.136C148.772 203.752 149.076 203.24 149.076 202.6C149.076 201.928 148.724 201.432 148.02 201.112C147.332 200.776 146.204 200.408 144.636 200.008C142.956 199.624 141.564 199.224 140.46 198.808C139.372 198.392 138.428 197.736 137.628 196.84C136.844 195.944 136.452 194.744 136.452 193.24C136.452 192.008 136.812 190.888 137.532 189.88C138.268 188.856 139.316 188.048 140.676 187.456C142.052 186.864 143.66 186.568 145.5 186.568C148.22 186.568 150.388 187.248 152.004 188.608C153.636 189.952 154.532 191.784 154.692 194.104H148.788C148.692 193.224 148.324 192.528 147.684 192.016C147.06 191.488 146.204 191.224 145.116 191.224C144.092 191.224 143.308 191.416 142.764 191.8C142.22 192.168 141.948 192.656 141.948 193.264C141.948 193.952 142.292 194.48 142.98 194.848C143.684 195.216 144.812 195.584 146.364 195.952C147.996 196.352 149.356 196.752 150.444 197.152C151.532 197.552 152.468 198.216 153.252 199.144C154.052 200.056 154.46 201.248 154.476 202.72C154.476 203.984 154.116 205.136 153.396 206.176C152.676 207.2 151.628 208.008 150.252 208.6C148.892 209.144 147.036 208.432 144.684 208.432Z" fill="#F7F4EC"/>
  <defs>
    <linearGradient id="paint0_linear_1_2" x1="52" y1="46" x2="208.527" y2="193.393" gradientUnits="userSpaceOnUse">
      <stop stop-color="#6FBFA7"/>
      <stop offset="0.5" stop-color="#5F8FD8"/>
      <stop offset="1" stop-color="#F2A65A"/>
    </linearGradient>
  </defs>
</svg>
